<svg version="1.1" xmlns="http://www.w3.org/2000/svg" xmlns:xlink="http://www.w3.org/1999/xlink" width="97.8083" height="41.074" viewBox="0,0,97.8083,41.074"><g transform="translate(-191.0957,-159.463)"><g data-paper-data="{&quot;isPaintingLayer&quot;:true}" fill-rule="nonzero" stroke-linecap="butt" stroke-linejoin="round" stroke-miterlimit="10" stroke-dasharray="" stroke-dashoffset="0" style="mix-blend-mode: normal"><g fill="#000000" stroke="#000000" stroke-width="10"><path d="M261.62701,191.264l3.662,-6.837l8.43,-11.359l-4.884,9.115z"/><path d="M265.289,184.427l-3.436,-6.453l7.285,-13.511l4.581,8.605z"/><path d="M269.13801,164.463h4.72l-8.464,13.511h-3.541z"/><path d="M273.85801,164.463l1.442,3.163l-8.825,12.72l-1.081,-2.372z"/><path d="M275.30001,167.626c0.09334,0.20134 0.27933,0.62767 0.558,1.279l-8.964,12.4c-0.20934,-0.488 -0.349,-0.80767 -0.419,-0.959z"/><path d="M275.85801,168.905c0.29467,0.65133 0.535,1.194 0.721,1.628l-9.145,11.993c-0.13934,-0.32533 -0.31934,-0.73234 -0.54,-1.221z"/><path d="M276.57901,170.533h0.093l-9.168,11.993h-0.07z"/><path d="M267.50401,182.526c0.17467,-0.51134 0.45966,-1.238 0.855,-2.18l9.453,-12.72c-0.52733,1.256 -0.90733,2.225 -1.14,2.907z"/><path d="M268.35901,180.346l0.976,-2.372l9.779,-13.511l-1.302,3.163z"/><path d="M279.11401,164.463h4.488l-10.901,13.511h-3.366z"/><path d="M283.602,164.463l-4.558,8.791l-9.761,11.313l3.418,-6.593z"/><path d="M279.044,173.254l4.86,8.929l-10.976,9.081l-3.645,-6.697z"/><path d="M272.92801,191.264h-3.54l9.796,-9.081h4.72z"/><path d="M269.38801,191.264l-1.239,-2.581l9.384,-9.941l1.651,3.441z"/><path d="M268.14901,188.683c-0.418,-0.93067 -0.74334,-1.669 -0.976,-2.215l9.057,-10.68c0.31,0.72867 0.74433,1.71333 1.303,2.954z"/><path d="M267.17301,186.468h-0.07l9.034,-10.68h0.093z"/><path d="M276.13701,175.788c-0.13934,0.35666 -0.55,1.34133 -1.232,2.954l-8.726,9.941c0.51134,-1.20934 0.81934,-1.94767 0.924,-2.215z"/><path d="M274.905,178.742l-1.512,3.441l-8.348,9.081l1.134,-2.581z"/><path d="M265.04501,191.264h-3.418l7.208,-9.081h4.558z"/><path d="M252.174,191.264v-13.29l4.058,-13.511v17.72z"/><path d="M256.23201,164.463h11.301l-6.883,13.511h-8.476z"/><path d="M267.53301,164.463v3.535l-6.883,12.627v-2.651z"/><path d="M260.65,180.625h-5.285l5.122,-12.627h7.046z"/><path d="M260.48701,167.998v3.884l-5.122,11.656v-2.913z"/><path d="M260.48701,171.882h6.046l-6.633,11.656h-4.535z"/><path d="M266.53301,171.882v3.534l-6.633,10.773v-2.651z"/><path d="M259.9,186.189h-4.535l5.122,-10.773h6.046z"/><path d="M260.48701,175.416v6.767l-5.122,9.081v-5.075z"/><path d="M255.36501,191.264h-3.191l4.058,-9.081h4.255z"/><path d="M243.314,191.508c-2.10467,0 -3.157,-1.372 -3.157,-4.116l0.052,-10.371c0,3.65867 1.403,5.488 4.209,5.488z"/><path d="M240.15701,187.392v-6.296l0.052,-12.47v8.395z"/><path d="M240.20901,168.626h4.233l-1.111,12.47h-3.174z"/><path d="M244.44201,168.626v7.86l-1.111,10.505v-5.895z"/><path d="M244.44201,176.486c0,0.91467 0.116,1.55034 0.348,1.907l-1.197,10.028c-0.17467,-0.26734 -0.262,-0.744 -0.262,-1.43z"/><path d="M244.79,178.393c0.248,0.34067 0.65134,0.511 1.21,0.511l-1.5,9.901c-0.41867,0 -0.721,-0.128 -0.907,-0.384z"/><path d="M246.00001,178.904c0.46466,0 0.86767,-0.10066 1.209,-0.302l-1.802,9.976c-0.256,0.15133 -0.55833,0.227 -0.907,0.227z"/><path d="M247.20901,178.602c0.34067,-0.21667 0.69733,-0.581 1.07,-1.093l-2.07,10.249c-0.27934,0.384 -0.54666,0.65733 -0.802,0.82z"/><path d="M246.20901,187.758v-6.662l2.07,-12.47v8.883z"/><path d="M248.27901,168.626h4.232l-3.128,12.47h-3.174z"/><path d="M252.511,168.626v13.557l-3.128,9.081v-10.168z"/><path d="M249.38301,191.264h-2.581l2.267,-9.081h3.442z"/><path d="M246.802,191.264l-0.244,-1.395l2.186,-9.546l0.325,1.86z"/><path d="M246.558,189.869h-0.07l2.163,-9.546h0.093z"/><path d="M246.48801,189.869c-0.91867,1.09267 -1.97666,1.639 -3.174,1.639l1.104,-8.999c1.59733,0 3.00834,-0.72866 4.233,-2.186z"/><path d="M232.9191,195.537c-1.25573,0 -2.28476,-0.215 -3.0871,-0.645l-3.3893,-7.872c1.06966,0.574 2.44166,0.861 4.116,0.861z"/><path d="M229.832,194.892c-0.7906,-0.41867 -1.1859,-1.05833 -1.1859,-1.919l-3.7847,-8.511c0,1.14733 0.5271,2 1.5813,2.558z"/><path d="M224.86141,184.462c0,-1.10066 0.64337,-1.98433 1.9301,-2.651l3.3022,9.174c-0.96507,0.5 -1.4476,1.16267 -1.4476,1.988z"/><path d="M226.79151,181.811v-0.139l3.3022,9.208v0.105z"/><path d="M230.09371,190.88c-0.61626,-0.39533 -0.9244,-0.97666 -0.9244,-1.744l-3.6103,-9.79c0,1.02334 0.41084,1.79866 1.2325,2.326z"/><path d="M225.55901,179.346c0,-0.97666 0.4961,-1.81366 1.4883,-2.511l3.2382,10.417c-0.74413,0.52334 -1.1162,1.15133 -1.1162,1.884z"/><path d="M227.04731,176.835v-0.093l3.2382,10.441v0.069z"/><path d="M230.28551,187.183c-0.39533,-0.27934 -0.7267,-0.64566 -0.9941,-1.099l-3.5696,-10.807c0.3566,0.60467 0.79844,1.093 1.3255,1.465z"/><path d="M225.72181,175.277c-0.34106,-0.62 -0.5116,-1.30233 -0.5116,-2.047l3.6975,11.319c0,0.558 0.1279,1.06966 0.3837,1.535z"/><path d="M225.2102,173.23c0,-1.56534 0.55037,-2.77433 1.6511,-3.627l3.2847,12.225c-0.82554,0.64 -1.2383,1.547 -1.2383,2.721z"/><path d="M226.86131,169.603c1.10066,-0.86866 2.44167,-1.303 4.023,-1.303l2.2789,12.552c-1.18594,0 -2.19167,0.32533 -3.0172,0.976z"/><path d="M230.88431,168.3c0.77514,0 1.48826,0.10867 2.1394,0.326l1.7441,12.47c-0.48834,-0.16267 -1.0232,-0.244 -1.6046,-0.244z"/><path d="M233.0237,168.626h4.9763l0.5,12.47h-3.7322z"/><path d="M238.50001,181.096v2.302l-0.5,-11.702v-3.07z"/><path d="M238.50001,183.398h-1.57l-1.023,-11.702h2.093z"/><path d="M235.90701,171.696c0.248,0.434 0.372,0.98434 0.372,1.651l0.931,11.289c0,-0.5 -0.09333,-0.91267 -0.28,-1.238z"/><path d="M237.21001,184.636c0,1.128 -0.378,1.98266 -1.134,2.564l-1.3082,-10.435c1.00746,-0.77534 1.5112,-1.91466 1.5112,-3.418z"/><path d="M236.076,187.2c-0.74427,0.57 -1.7152,0.855 -2.9128,0.855l-2.2789,-10.151c1.5968,0 2.8913,-0.37967 3.8835,-1.139z"/><path d="M233.1632,188.055c-0.32554,0 -0.72666,-0.064 -1.2034,-0.192l-2.6801,-10.214c0.63566,0.17 1.17054,0.255 1.6046,0.255z"/><path d="M231.95981,187.863c-0.20926,0.19734 -0.3139,0.43567 -0.3139,0.715l-2.7848,-9.976c0,-0.372 0.13953,-0.68966 0.4186,-0.953z"/><path d="M228.8611,178.602c0,0.60467 0.66663,0.907 1.9999,0.907l2.2848,9.749c-0.99993,0 -1.4999,-0.22666 -1.4999,-0.68z"/><path d="M230.861,179.509h2.1394l1.7499,9.749h-1.6045z"/><path d="M233.00041,179.509c3.4724,0 5.2086,1.16267 5.2086,3.488l0.448,8.877c0,-1.744 -1.30223,-2.616 -3.9067,-2.616z"/><path d="M238.65701,191.874c0,1.08133 -0.52334,1.95934 -1.57,2.634l-0.97,-7.999c1.39467,-0.89934 2.092,-2.07 2.092,-3.512z"/><path d="M237.087,194.508c-1.03466,0.686 -2.42397,1.029 -4.1679,1.029l-2.3604,-7.656c2.32547,0 4.17824,-0.45734 5.5583,-1.372z"/><path d="M234.45381,184.549c0,-0.5 -0.12206,-0.88367 -0.3662,-1.151l-1.9708,-11.702c0.32554,0.356 0.4883,0.86733 0.4883,1.534z"/><path d="M234.08761,183.398c-0.23254,-0.27934 -0.54067,-0.419 -0.9244,-0.419l-2.2789,-11.842c0.5116,0 0.92244,0.18633 1.2325,0.559z"/><path d="M233.1632,182.979c-0.38367,0 -0.6976,0.13967 -0.9418,0.419l-2.5929,-11.702c0.3256,-0.37267 0.7442,-0.559 1.2558,-0.559z"/><path d="M232.2214,183.398c-0.23254,0.26734 -0.3488,0.651 -0.3488,1.151l-2.7091,-11.319c0,-0.66666 0.155,-1.178 0.465,-1.534z"/><path d="M229.16351,173.23c0,0.682 0.155,1.20933 0.465,1.582l2.5929,10.923c-0.23254,-0.27866 -0.3488,-0.674 -0.3488,-1.186z"/><path d="M229.62851,174.812c0.3256,0.356 0.7442,0.534 1.2558,0.534l2.2789,10.79c-0.38367,0 -0.6976,-0.13367 -0.9418,-0.401z"/><path d="M230.88431,175.346c0.5116,0 0.92244,-0.178 1.2325,-0.534l1.9708,10.923c-0.23254,0.26734 -0.54067,0.401 -0.9244,0.401z"/><path d="M232.11681,174.812c0.32554,-0.37267 0.4883,-0.9 0.4883,-1.582l1.8487,11.319c0,0.512 -0.12206,0.90733 -0.3662,1.186z"/><path d="M231.20981,185.23c0.8682,0 1.5736,-0.13966 2.1162,-0.419l1.6685,8.424c-0.40694,0.20934 -0.93596,0.314 -1.5871,0.314z"/><path d="M233.326,184.811c0.55813,-0.27934 0.8372,-0.636 0.8372,-1.07l1.4588,8.691c0,0.326 -0.20917,0.59366 -0.6275,0.803z"/><path d="M235.62201,192.432c0,-0.29066 -0.122,-0.48833 -0.366,-0.593l-1.5812,-8.888c0.3256,0.13933 0.4884,0.40266 0.4884,0.79z"/><path d="M235.25601,191.839c-0.23246,-0.09267 -0.6045,-0.139 -1.1161,-0.139l-1.9534,-8.935c0.68213,0 1.17824,0.062 1.4883,0.186z"/><path d="M234.13991,191.7h-0.9592l-2.2732,-8.935h1.279z"/><path d="M233.18071,191.7c-0.62787,0 -1.1104,-0.04666 -1.4476,-0.14l-2.7557,-8.981c0.4496,0.124 1.09297,0.186 1.9301,0.186z"/><path d="M231.73311,191.56c-0.3256,0.29066 -0.4884,0.599 -0.4884,0.925l-2.9184,-8.674c0,-0.434 0.21703,-0.84466 0.6511,-1.232z"/><path d="M228.32631,183.811c0,0.946 0.96116,1.419 2.8835,1.419l2.1976,8.319c-1.4418,0 -2.1627,-0.35467 -2.1627,-1.064z"/><path d="M214.21091,182.509c-2.80606,0 -4.2091,-1.82933 -4.2091,-5.488l7.4996,10.371c0,2.744 1.05227,4.116 3.1568,4.116z"/><path d="M210.00181,177.021v-8.395l7.4996,12.47v6.296z"/><path d="M210.00181,168.626h4.2323l6.4415,12.47h-3.1742z"/><path d="M220.67561,181.096v5.895l-6.4415,-10.505v-7.86z"/><path d="M220.67561,186.991c0,0.686 0.0872,1.16267 0.2616,1.43l-6.3542,-10.028c-0.2326,-0.35666 -0.3489,-0.99233 -0.3489,-1.907z"/><path d="M214.58301,178.393c0.248,0.34067 0.65107,0.511 1.2092,0.511l6.052,9.901c-0.4186,0 -0.72093,-0.128 -0.907,-0.384z"/><path d="M215.79221,178.904c0.46507,0 0.86813,-0.10066 1.2092,-0.302l5.7497,9.976c-0.2558,0.15133 -0.5581,0.227 -0.9069,0.227z"/><path d="M217.0014,178.602c0.34106,-0.21667 0.69764,-0.581 1.0697,-1.093l5.4823,10.249c-0.27907,0.384 -0.5465,0.65733 -0.8023,0.82z"/><path d="M218.07111,177.509v-8.883l5.4823,12.47v6.662z"/><path d="M218.07111,168.626h4.2323l4.4242,12.47h-3.1742z"/><path d="M226.72761,181.096v10.168l-4.4242,-9.081v-13.557z"/><path d="M226.72761,191.264h-2.5813l-5.2845,-9.081h3.4416z"/><path d="M218.8618,182.183l-0.3256,-1.86l5.366,9.546l0.2441,1.395z"/><path d="M223.9022,189.869h-0.0698l-5.3892,-9.546h0.093z"/><path d="M223.83241,189.869c-0.91853,1.09267 -1.97664,1.639 -3.1743,1.639l-6.4472,-8.999c1.5968,0 3.00756,-0.72866 4.2323,-2.186z"/><path d="M196.0957,182.183v-17.72l10.9761,13.511v13.29z"/><path d="M196.0957,164.463h11.3016l8.1507,13.511h-8.4762z"/><path d="M215.54801,177.974v2.651l-8.1507,-12.627v-3.535z"/><path d="M215.54801,180.625h-5.2845l-9.9122,-12.627h7.046z"/><path d="M210.2635,180.625v2.913l-9.9122,-11.656v-3.884z"/><path d="M200.35131,171.882h6.0461l8.4007,11.656h-4.5346z"/><path d="M214.79811,183.538v2.651l-8.4007,-10.773v-3.534z"/><path d="M214.79811,186.189h-4.5346l-9.9122,-10.773h6.0461z"/><path d="M210.2635,186.189v5.075l-9.9122,-9.081v-6.767z"/><path d="M210.2635,191.264h-3.1917l-10.9761,-9.081h4.2556z"/></g><path d="M268.83546,182.18325l4.88343,-9.11572l-4.58112,-8.60413h4.72064l1.44177,3.1626c0.09302,0.20154 0.27905,0.62787 0.55811,1.27899c0.29455,0.65113 0.53485,1.19373 0.72089,1.62781h0.093c0.23254,-0.68213 0.61237,-1.65106 1.13947,-2.9068l1.30225,-3.1626h4.48809l-4.55786,8.79016l4.86017,8.92969h-4.72064l-1.65106,-3.44165c-0.5581,-1.24024 -0.99219,-2.22467 -1.30225,-2.95331h-0.093c-0.13952,0.35656 -0.55035,1.34101 -1.23248,2.95331l-1.51154,3.44165zM256.23158,182.18325v-17.71985h11.30164v3.53467h-7.04608v3.88348h6.04614v3.53467h-6.04614v6.76703zM244.41834,182.50881c-2.80604,0 -4.20905,-1.82935 -4.20905,-5.48803v-8.39484h4.2323v7.85998c0,0.91467 0.11628,1.5503 0.34882,1.90686c0.24804,0.34106 0.65112,0.5116 1.20923,0.5116c0.46508,0 0.86817,-0.10077 1.20923,-0.30231c0.34106,-0.21704 0.69763,-0.58136 1.0697,-1.09295v-8.88318h4.2323v13.55731h-3.44165l-0.32556,-1.86035h-0.093c-1.22474,1.45728 -2.6355,2.18591 -4.2323,2.18591zM230.55872,187.88058c-1.67432,0 -3.04632,-0.28681 -4.11603,-0.86041c-1.0542,-0.55811 -1.5813,-1.41077 -1.5813,-2.55799c0,-1.10071 0.64337,-1.98437 1.93012,-2.651v-0.13953c-0.82165,-0.5271 -1.23248,-1.30225 -1.23248,-2.32544c0,-0.97668 0.49609,-1.81383 1.48828,-2.51147v-0.093c-0.5271,-0.37206 -0.96894,-0.86041 -1.3255,-1.46502c-0.34106,-0.62012 -0.51159,-1.30225 -0.51159,-2.04639c0,-1.5658 0.55035,-2.77502 1.65106,-3.62769c1.10071,-0.86816 2.44171,-1.30224 4.02301,-1.30224c0.77515,0 1.48828,0.10852 2.13941,0.32556h4.97645v3.06958h-2.0929c0.24804,0.43408 0.37207,0.98443 0.37207,1.65106c0,1.50378 -0.50385,2.64325 -1.51154,3.4184c-0.99219,0.75964 -2.28668,1.13946 -3.88348,1.13946c-0.43408,0 -0.96893,-0.08526 -1.60455,-0.2558c-0.27905,0.26355 -0.41858,0.58137 -0.41858,0.95343c0,0.60462 0.66663,0.90693 1.99988,0.90693h2.1394c3.47266,0 5.20899,1.16272 5.20899,3.48815c0,1.44178 -0.69763,2.61224 -2.0929,3.51142c-1.37976,0.91467 -3.23236,1.37201 -5.5578,1.37201zM232.60511,173.23031c0,-0.66663 -0.16278,-1.17823 -0.48834,-1.53479c-0.31006,-0.37207 -0.72089,-0.55811 -1.23248,-0.55811c-0.51159,0 -0.93017,0.18604 -1.25573,0.55811c-0.31006,0.35656 -0.46509,0.86817 -0.46509,1.53479c0,0.68213 0.15503,1.20923 0.46509,1.5813c0.32556,0.35656 0.74414,0.53485 1.25573,0.53485c0.51159,0 0.92243,-0.17829 1.23248,-0.53485c0.32556,-0.37207 0.48834,-0.89917 0.48834,-1.5813zM231.20985,185.22958c0.86817,0 1.57354,-0.13952 2.11615,-0.41858c0.55811,-0.27905 0.83715,-0.63562 0.83715,-1.0697c0,-0.38757 -0.16278,-0.65113 -0.48834,-0.79065c-0.31006,-0.12402 -0.80615,-0.18604 -1.48828,-0.18604h-1.279c-0.83716,0 -1.48053,-0.06201 -1.93012,-0.18603c-0.43408,0.38757 -0.65112,0.7984 -0.65112,1.23248c0,0.94568 0.96118,1.41852 2.88354,1.41852zM214.21088,182.50881c-2.80603,0 -4.20905,-1.82935 -4.20905,-5.48803v-8.39484h4.2323v7.85998c0,0.91467 0.11627,1.5503 0.34882,1.90686c0.24804,0.34106 0.65112,0.5116 1.20923,0.5116c0.46509,0 0.86817,-0.10077 1.20923,-0.30231c0.34106,-0.21704 0.69763,-0.58136 1.0697,-1.09295v-8.88318h4.2323v13.55731h-3.44165l-0.32556,-1.86035h-0.09302c-1.22473,1.45728 -2.6355,2.18591 -4.2323,2.18591zM196.09571,182.18325v-17.71985h11.30164v3.53467h-7.04609v3.88348h6.04614v3.53467h-6.04614v6.76703z" fill="#ffffff" stroke="#ffffff" stroke-width="5"/><path d="M268.83546,182.18325l4.88343,-9.11572l-4.58112,-8.60413h4.72064l1.44177,3.1626c0.09302,0.20154 0.27905,0.62787 0.55811,1.27899c0.29455,0.65113 0.53485,1.19373 0.72089,1.62781h0.093c0.23254,-0.68213 0.61237,-1.65106 1.13947,-2.9068l1.30225,-3.1626h4.48809l-4.55786,8.79016l4.86017,8.92969h-4.72064l-1.65106,-3.44165c-0.5581,-1.24024 -0.99219,-2.22467 -1.30225,-2.95331h-0.093c-0.13952,0.35656 -0.55035,1.34101 -1.23248,2.95331l-1.51154,3.44165zM256.23158,182.18325v-17.71985h11.30164v3.53467h-7.04608v3.88348h6.04614v3.53467h-6.04614v6.76703zM244.41834,182.50881c-2.80604,0 -4.20905,-1.82935 -4.20905,-5.48803v-8.39484h4.2323v7.85998c0,0.91467 0.11628,1.5503 0.34882,1.90686c0.24804,0.34106 0.65112,0.5116 1.20923,0.5116c0.46508,0 0.86817,-0.10077 1.20923,-0.30231c0.34106,-0.21704 0.69763,-0.58136 1.0697,-1.09295v-8.88318h4.2323v13.55731h-3.44165l-0.32556,-1.86035h-0.093c-1.22474,1.45728 -2.6355,2.18591 -4.2323,2.18591zM230.55873,187.88058c-1.67432,0 -3.04633,-0.28681 -4.11603,-0.86041c-1.0542,-0.55811 -1.5813,-1.41077 -1.5813,-2.55799c0,-1.10071 0.64337,-1.98437 1.93011,-2.651v-0.13953c-0.82165,-0.5271 -1.23248,-1.30225 -1.23248,-2.32544c0,-0.97668 0.49609,-1.81383 1.48828,-2.51147v-0.093c-0.5271,-0.37206 -0.96894,-0.86041 -1.3255,-1.46502c-0.34106,-0.62012 -0.5116,-1.30225 -0.5116,-2.04639c0,-1.5658 0.55035,-2.77502 1.65107,-3.62769c1.10071,-0.86816 2.44171,-1.30224 4.02301,-1.30224c0.77515,0 1.48828,0.10852 2.1394,0.32556h4.97644v3.06958h-2.0929c0.24804,0.43408 0.37207,0.98443 0.37207,1.65106c0,1.50378 -0.50384,2.64325 -1.51153,3.4184c-0.99219,0.75964 -2.28668,1.13946 -3.88348,1.13946c-0.43409,0 -0.96894,-0.08526 -1.60456,-0.2558c-0.27905,0.26355 -0.41858,0.58137 -0.41858,0.95343c0,0.60462 0.66662,0.90693 1.99988,0.90693h2.13941c3.47266,0 5.20898,1.16272 5.20898,3.48815c0,1.44178 -0.69763,2.61224 -2.0929,3.51142c-1.37976,0.91467 -3.23236,1.37201 -5.5578,1.37201zM232.60511,173.23031c0,-0.66663 -0.16278,-1.17823 -0.48834,-1.53479c-0.31006,-0.37207 -0.72089,-0.55811 -1.23248,-0.55811c-0.5116,0 -0.93018,0.18604 -1.25574,0.55811c-0.31006,0.35656 -0.46509,0.86817 -0.46509,1.53479c0,0.68213 0.15503,1.20923 0.46509,1.5813c0.32556,0.35656 0.74414,0.53485 1.25574,0.53485c0.51159,0 0.92242,-0.17829 1.23248,-0.53485c0.32556,-0.37207 0.48834,-0.89917 0.48834,-1.5813zM231.20985,185.22958c0.86816,0 1.57354,-0.13952 2.11615,-0.41858c0.55811,-0.27905 0.83716,-0.63562 0.83716,-1.0697c0,-0.38757 -0.16278,-0.65113 -0.48835,-0.79065c-0.31006,-0.12402 -0.80615,-0.18604 -1.48828,-0.18604h-1.27899c-0.83716,0 -1.48053,-0.06201 -1.93011,-0.18603c-0.43409,0.38757 -0.65113,0.7984 -0.65113,1.23248c0,0.94568 0.96118,1.41852 2.88355,1.41852zM214.21089,182.50881c-2.80604,0 -4.20905,-1.82935 -4.20905,-5.48803v-8.39484h4.2323v7.85998c0,0.91467 0.11628,1.5503 0.34882,1.90686c0.24804,0.34106 0.65112,0.5116 1.20922,0.5116c0.46509,0 0.86817,-0.10077 1.20923,-0.30231c0.34106,-0.21704 0.69764,-0.58136 1.0697,-1.09295v-8.88318h4.2323v13.55731h-3.44165l-0.32556,-1.86035h-0.093c-1.22473,1.45728 -2.63549,2.18591 -4.2323,2.18591zM196.09571,182.18325v-17.71985h11.30164v3.53467h-7.04608v3.88348h6.04614v3.53467h-6.04614v6.76703z" fill="#5da797" stroke="none" stroke-width="37.5"/></g></g></svg>